<svg xmlns="http://www.w3.org/2000/svg" xmlns:xlink="http://www.w3.org/1999/xlink" viewBox="0 0 24 30" version="1.1" x="0px" y="0px"><title>geo-2d</title><desc>Created with Sketch.</desc><g stroke="none" stroke-width="1" fill="none" fill-rule="evenodd"><g fill="#000000"><path d="M4.7716,2.7574 L7.3096,6.9864 L4.7716,11.2164 L2.5156,6.9864 L4.7716,2.7574 Z M10.3016,2.5004 L12.8436,6.7364 L7.7426,6.7364 L5.2006,2.5004 L10.3016,2.5004 Z M10.5976,11.9094 C10.6096,11.9004 10.6186,11.8924 10.6276,11.8804 C10.6376,11.8694 10.6496,11.8644 10.6576,11.8524 L13.4996,7.1154 C13.5066,7.1034 13.5006,7.0904 13.5046,7.0784 C13.5146,7.0564 13.5206,7.0394 13.5226,7.0164 C13.5246,7.0054 13.5356,6.9984 13.5356,6.9864 C13.5356,6.9754 13.5246,6.9684 13.5226,6.9574 C13.5206,6.9344 13.5146,6.9174 13.5046,6.8954 C13.5006,6.8834 13.5066,6.8704 13.4996,6.8584 L10.6576,2.1214 C10.6516,2.1114 10.6386,2.1114 10.6316,2.1034 C10.6116,2.0764 10.5856,2.0644 10.5566,2.0474 C10.5276,2.0314 10.5046,2.0164 10.4726,2.0124 C10.4616,2.0104 10.4546,2.0004 10.4426,2.0004 L4.7586,2.0004 C4.7456,2.0004 4.7366,2.0124 4.7236,2.0144 C4.7006,2.0184 4.6836,2.0214 4.6626,2.0304 C4.6516,2.0354 4.6406,2.0294 4.6306,2.0354 C4.6206,2.0414 4.6206,2.0544 4.6116,2.0614 C4.5926,2.0754 4.5816,2.0894 4.5676,2.1084 C4.5596,2.1184 4.5446,2.1204 4.5386,2.1324 L2.0116,6.8694 C2.0076,6.8774 2.0126,6.8864 2.0096,6.8944 C1.9966,6.9244 2.0006,6.9534 2.0006,6.9864 C2.0006,7.0204 1.9966,7.0494 2.0096,7.0794 C2.0126,7.0874 2.0076,7.0964 2.0116,7.1044 L4.5386,11.8414 C4.5466,11.8574 4.5616,11.8644 4.5726,11.8774 C4.5826,11.8894 4.5906,11.8994 4.6036,11.9094 C4.6126,11.9174 4.6186,11.9304 4.6296,11.9364 C4.6296,11.9374 4.6296,11.9374 4.6306,11.9384 L4.6306,11.9384 C4.6696,11.9614 4.7136,11.9734 4.7586,11.9734 L10.4426,11.9734 C10.5006,11.9734 10.5526,11.9474 10.5976,11.9094 L10.5976,11.9094 Z"/><path d="M15.9743,15.4724 L20.1533,12.5474 L20.5013,17.4754 L16.3223,20.4024 L15.9743,15.4724 Z M15.3533,10.1254 L19.8663,12.1374 L15.6883,15.0634 L11.1753,13.0504 L15.3533,10.1254 Z M20.9993,17.6114 C21.0003,17.6004 21.0113,17.5934 21.0103,17.5814 L20.6213,12.0714 C20.6203,12.0584 20.6073,12.0514 20.6043,12.0394 C20.5993,12.0154 20.5943,11.9974 20.5833,11.9764 C20.5783,11.9664 20.5823,11.9544 20.5763,11.9454 C20.5683,11.9344 20.5543,11.9344 20.5443,11.9254 C20.5303,11.9094 20.5183,11.9004 20.5003,11.8884 C20.4893,11.8814 20.4863,11.8664 20.4733,11.8604 L15.4283,9.6104 C15.4173,9.6054 15.4073,9.6124 15.3963,9.6094 C15.3653,9.6004 15.3373,9.6044 15.3043,9.6074 C15.2713,9.6104 15.2423,9.6114 15.2133,9.6274 C15.2033,9.6324 15.1923,9.6284 15.1823,9.6344 L10.5263,12.8944 C10.5153,12.9024 10.5153,12.9174 10.5063,12.9264 C10.4893,12.9424 10.4763,12.9554 10.4653,12.9754 C10.4593,12.9844 10.4463,12.9864 10.4413,12.9974 C10.4363,13.0074 10.4443,13.0184 10.4403,13.0294 C10.4333,13.0514 10.4323,13.0704 10.4323,13.0934 C10.4313,13.1064 10.4203,13.1154 10.4223,13.1294 L11.0693,18.4584 C11.0703,18.4674 11.0793,18.4724 11.0813,18.4824 C11.0873,18.5084 11.1033,18.5264 11.1173,18.5494 C11.1363,18.5814 11.1543,18.6084 11.1843,18.6284 C11.1933,18.6344 11.1943,18.6464 11.2043,18.6514 L15.9913,21.0824 C16.0263,21.1014 16.0653,21.1094 16.1023,21.1094 C16.1033,21.1094 16.1033,21.1104 16.1033,21.1104 L16.1043,21.1104 C16.1103,21.1104 16.1163,21.1104 16.1213,21.1094 C16.1293,21.1094 16.1343,21.1004 16.1413,21.0994 C16.1763,21.0944 16.2103,21.0864 16.2393,21.0674 C16.2423,21.0654 16.2453,21.0664 16.2473,21.0644 L20.9043,17.8034 C20.9133,17.7974 20.9123,17.7844 20.9213,17.7774 C20.9453,17.7554 20.9563,17.7294 20.9713,17.6984 C20.9853,17.6694 20.9983,17.6444 20.9993,17.6114 L20.9993,17.6114 Z"/></g></g><text x="0" y="39" fill="#000000" font-size="5px" font-weight="bold" font-family="'Helvetica Neue', Helvetica, Arial-Unicode, Arial, Sans-serif">Created by Eynav Raphael</text><text x="0" y="44" fill="#000000" font-size="5px" font-weight="bold" font-family="'Helvetica Neue', Helvetica, Arial-Unicode, Arial, Sans-serif">from the Noun Project</text></svg>